<svg xmlns="http://www.w3.org/2000/svg" viewBox="0 0 582.7 71.72"><defs><style>.cls-1{fill:red;}</style></defs><title>Asset 5v1</title><g id="Layer_2" data-name="Layer 2"><g id="Ebene_1" data-name="Ebene 1"><path d="M0,43.57H6.36v2c0,5,2.62,7.08,9.62,7.08H30.61c10.26,0,13.52-.4,13.52-6.44v-.32c0-3.9-1.11-6-9.3-6H13.76C4.14,39.84.56,36.73.56,29V26.64c0-6.6,3.73-10.26,20.59-10.26h10.5c15.42,0,17.57,4.45,17.57,10.18V28.7H42.86v-.39c0-6.21-4.14-6.36-11.61-6.36H19.32C9.54,22,7.4,22.9,7.4,27.51V29c0,3.34,1.11,5.25,8.27,5.25h18c10.26,0,17.26,1,17.26,12v.15C51,57.81,40.47,58.2,32.12,58.2H19.56C9.46,58.2,0,58.2,0,46Z"/><path d="M60.25,17h6.36v6.44h.16c2-4.93,7.55-7.08,13.6-7.08h13c9.7,0,18.76,3.1,18.76,17.09v7.16c0,13.12-5.8,17.57-19.87,17.57h-13c-7.23,0-10.49-1.82-11.92-6h-.16V71.72H60.25Zm45,16.53c0-7.87-2.54-11.6-12.16-11.6H79.49c-9,0-12.4,4.69-12.4,11.68v7.72c0,9.7,6,11.29,13.28,11.29H92.53c8,0,12.72-1.75,12.72-11.14Z"/><path d="M198.78,17h6.36V22.9h.16c2.55-5.25,7.72-6.52,12.41-6.52h6.44c12.8,0,17,4.13,17,14.07V35.3H234.8V33.55c0-10-2.07-11.6-14.23-11.6h-4.22c-7.23,0-10.73,4.61-10.73,9.85V57.57h-6.84Z"/><path d="M255,22.58h-8.91V17H255V7.4h6.84V17H289v5.56H261.86v20.2c0,7.55,2.62,9.86,10.1,9.86h2.14c9.07,0,10.5-1.91,10.5-10.42v-3h5.57v4.45c0,8.11-.79,14.55-15.59,14.55h-3.74C258,58.2,255,52,255,45.4Z"/><path d="M298.89,17H313.2v7.71h.16c1.75-6.44,7.95-8.35,14.87-8.35,11.13,0,15.5,4.77,15.5,16,0,1-.08,2.15-.15,3.58h-13.2c0-5.17-1.2-7.63-7.32-7.63-5.25,0-8.91,2-8.91,6.83V57.57H298.89Z"/><path d="M349.38,43.33c0-11,7.63-11.68,22.42-11.68,8.35,0,13,.23,15.9,3.26V31.33c0-4-1.19-5.41-7.15-5.41h-9c-4.45,0-5.72.4-5.88,3.26H350.89c0-11,5.4-12.8,18.29-12.8h17.73c10.49,0,16.06,5,16.06,14.55V57.57H388.5V53c-4.22,4.38-5.81,5.25-13.44,5.25H364.64c-9.3.08-15.26-2-15.26-11.53Zm27.19,5.33c10.5,0,11.45-1.59,11.45-4.29,0-3-.87-4.14-9.3-4.14H372c-6.44,0-7.79,1.43-7.79,4.77,0,2.63,2.07,3.66,8,3.66Z"/><path d="M410.67,33.63c0-10.33,2.39-17.25,21.71-17.25h4.53c6.29,0,12.73,1.75,13.68,8.11h.16V0H466V57.57H451.7V50.09h-.16c-1.67,5-5.48,8.11-14.71,8.11h-4.45c-19.32,0-21.71-6.91-21.71-17.25Zm14.79,6c0,4.53.72,7.07,8,7.07h9c6,0,9.22-1.35,9.22-7.47v-4c0-6.12-3.18-7.47-9.22-7.47h-9c-7.31,0-8,2.54-8,7.08Z"/><path d="M474.48,43.33c0-11,7.64-11.68,22.43-11.68,8.34,0,13,.23,15.9,3.26V31.33c0-4-1.19-5.41-7.16-5.41h-9c-4.46,0-5.73.4-5.89,3.26H476c0-11,5.41-12.8,18.29-12.8H512c10.5,0,16.06,5,16.06,14.55V57.57H513.6V53c-4.21,4.38-5.8,5.25-13.43,5.25H489.75c-9.3.08-15.27-2-15.27-11.53Zm27.2,5.33c10.49,0,11.45-1.59,11.45-4.29,0-3-.88-4.14-9.31-4.14h-6.76c-6.44,0-7.79,1.43-7.79,4.77,0,2.63,2.07,3.66,8,3.66Z"/><path d="M537.85,17h14.32v7.71h.16c1.75-6.44,7.95-8.35,14.86-8.35,11.14,0,15.51,4.77,15.51,16,0,1-.08,2.15-.16,3.58h-13.2c0-5.17-1.19-7.63-7.32-7.63-5.24,0-8.9,2-8.9,6.83V57.57H537.85Z"/><path class="cls-1" d="M162,21.86H148.05c-8,0-13.52,1.82-13.52,11.29v8.11c0,9.46,5.57,11.29,13.52,11.29H162c7.95,0,13.52-1.83,13.52-11.29V33.15C175.48,23.68,169.91,21.86,162,21.86Z"/><path class="cls-1" d="M161.26,10.46H148.75c-16.57,0-28.67,4-28.67,21.05V42.9c0,17.08,12.1,21,28.67,21h12.51c16.57,0,28.67-4,28.67-21V31.51C189.93,14.43,177.83,10.46,161.26,10.46Zm21.06,31.2c0,13.35-9.46,16.45-22.42,16.45h-9.79c-13,0-22.42-3.1-22.42-16.45V32.75c0-13.36,9.47-16.46,22.42-16.46h9.79c13,0,22.42,3.1,22.42,16.46Z"/></g></g></svg>