<svg height="125" preserveAspectRatio="xMinYMin slice" viewBox="0 0 429 125" width="429" xmlns="http://www.w3.org/2000/svg"><path d="m0 0v125h429v-125zm275.4 75.6c-4.4 0-7.3-1.3-10.3-6-2.9-4.7-7.9-12.6-7.9-12.6l21.5-30h-18.7l-17.1 23.8v-42.9h-15.6v82.4h15.6v-26.1s8.7 13.7 11.4 18c4.3 6.5 10 8.3 19.4 8.3h4.6v-14.9zm139.6 0c-4.4 0-7.3-1.3-10.3-6s-7.9-12.6-7.9-12.6l21.5-30h-18.7l-17.1 23.8v-42.9h-15.6v82.4h15.6v-26.1s8.7 13.7 11.4 18c4.3 6.5 10 8.3 19.4 8.3h4.6v-14.9zm-382.7 15.4c-9.7 0-17.6-1.8-24.1-8.4l10-10c3.3 3.3 9.1 4.5 14.2 4.5 6.2 0 9.1-2 9.1-5.7 0-1.5-.4-2.8-1.2-3.8-.8-.8-2.1-1.4-4.2-1.7l-7.7-1.1c-5.6-.8-9.9-2.7-12.7-5.6-2.9-3-4.4-7.3-4.4-12.7 0-11.6 8.7-20.1 23.2-20.1 9.1 0 16 2.1 21.4 7.6l-9.8 9.8c-4-4-9.3-3.7-12-3.7-5.4 0-7.7 3.1-7.7 5.9 0 .8.3 2 1.2 2.9.8.8 2.1 1.6 4.4 1.9l7.7 1.1c5.7.8 9.8 2.6 12.5 5.3 3.4 3.3 4.7 8 4.7 13.9-.1 12.8-11.2 19.9-24.6 19.9zm72.1-7.1c-4.6 4.6-10 7.1-17.7 7.1-7.8 0-13.1-2.5-17.7-7.1-6.7-6.7-6.4-15.6-6.4-25.2 0-9.5-.3-18.5 6.4-25.1 4.6-4.6 10-7.1 17.7-7.1 7.8 0 13.1 2.5 17.7 7.1 6.7 6.7 6.4 15.6 6.4 25.1s.2 18.5-6.4 25.2zm-11.5-40.8c-1.2-1.5-3.4-2.8-6.2-2.8-2.9 0-5.1 1.2-6.2 2.8-1.4 1.9-2.3 4-2.3 15.6s.9 13.7 2.3 15.5c1.2 1.5 3.4 2.9 6.2 2.9 2.9 0 5.1-1.3 6.2-2.9 1.4-1.9 2.3-3.9 2.3-15.5s-.9-13.7-2.3-15.6zm244.4 48c-7.4 0-13-2.5-17.6-7.1-6.7-6.7-6.4-15.6-6.4-25.2 0-9.5-.3-18.5 6.4-25.1 4.6-4.6 10.2-7.1 17.6-7.1 12 0 21.7 6.7 24.1 20.7h-15.9c-1-3.6-2.9-6.8-8.1-6.8-2.9 0-5 1.2-6.1 2.7-1.4 1.9-2.4 4.1-2.4 15.7s1 13.8 2.4 15.7c1.2 1.5 3.3 2.7 6.1 2.7 5.2 0 7.1-3.2 8.1-6.8h15.9c-2.3 13.9-12.1 20.6-24.1 20.6zm-133.3 4c0 8.4-5.8 9.8-9.5 9.8h-5.7v13.9h6.9c15.5-.1 24-8.2 24-23.8l-.1-46.9c0-7.3-3.4-13.1-8.3-16.9-4.4-3.3-10-5-15.6-5-7.4 0-13 2.5-17.6 7.1-6.7 6.7-6.4 15.6-6.4 25.1s-.3 18.5 6.4 25.2c4.6 4.6 10.2 7.1 17.6 7.1 2.9 0 5.5-.6 8.3-1.9zm-8.2-18c-2.9 0-5-1.2-6.1-2.7-1.4-1.9-2.4-4.1-2.4-15.7s1-13.8 2.4-15.7c1.2-1.5 3.3-2.7 6.1-2.7 5.1 0 7.1 3.1 8.1 6.6v23.6c-1 3.5-3 6.6-8.1 6.6zm-30.4-22.6c0-6.5.3-14.3-6.4-20.9-4.6-4.6-10-7.1-17.7-7.1-7.8 0-13.1 2.5-17.7 7.1-6.7 6.7-6.4 14.9-6.4 20.9v36h15.6v-36c0-8.1.9-9.3 2.3-11.2 1.2-1.5 3.4-3 6.2-3 2.9 0 5.1 1.5 6.2 3 1.4 1.9 2.3 2.9 2.3 11.2v35.9h15.6zm133-33.9v-12.6h-15.5v12.6zm-15.9 6.5h15.9v38.8c0 6.9 4.4 9.8 9.6 9.8h3.6v14.8h-5.1c-15.8-.1-24-8.8-24-24z" fill="#1e2126" fill-rule="evenodd"/></svg>