<?xml version="1.0" encoding="UTF-8" standalone="no"?>
<svg
   xmlns:dc="http://purl.org/dc/elements/1.1/"
   xmlns:cc="http://creativecommons.org/ns#"
   xmlns:rdf="http://www.w3.org/1999/02/22-rdf-syntax-ns#"
   xmlns:svg="http://www.w3.org/2000/svg"
   xmlns="http://www.w3.org/2000/svg"
   version="1.1"
   id="svg3855"
   viewBox="0 0 82.962828 84.134302"
   height="23.74457mm"
   width="23.413954mm">
  <defs
     id="defs3857" />
  <metadata
     id="metadata3860">
    <rdf:RDF>
      <cc:Work
         rdf:about="">
        <dc:format>image/svg+xml</dc:format>
        <dc:type
           rdf:resource="http://purl.org/dc/dcmitype/StillImage" />
        <dc:title></dc:title>
      </cc:Work>
    </rdf:RDF>
  </metadata>
  <g
     transform="translate(-141.68741,-730.29505)"
     id="layer1">
    <path
       d="m 202.09311,749.29315 c -4.9616,-4.0101 -11.1269,-6.0178 -18.4918,-6.0178 -7.383,0 -13.5443,2.0031 -18.5045,6.0178 h -0.4808 l 18.998,-18.9981 18.9981,18.9981 z"
       style="fill:#ed6f00;fill-rule:evenodd"
       id="path3686" />
    <path
       d="m 165.12601,795.43125 c 4.9616,4.0101 11.1268,6.0178 18.4918,6.0178 7.383,0 13.5443,-2.003 18.5045,-6.0178 h 0.4808 l -18.9981,18.9981 -18.9981,-18.9981 z"
       style="fill:#01b34c;fill-rule:evenodd"
       id="path3688" />
    <path
       d="m 160.68541,753.90445 c -4.01,4.9616 -6.0177,11.1269 -6.0177,18.4918 0,7.3831 2.003,13.5443 6.0177,18.5046 v 0.4808 l -18.998,-18.9981 18.998,-18.9981 z"
       style="fill:#00a0e3;fill-rule:evenodd"
       id="path3690" />
    <path
       d="m 205.65214,752.9986 c 4.0101,4.9616 6.0178,11.1269 6.0178,18.4918 0,7.383 -2.0031,13.5443 -6.0178,18.5045 v 0.4808 l 18.9981,-18.998 -18.9981,-18.9981 z"
       style="fill:#f40402;fill-rule:evenodd"
       id="path3712" />
    <path
       d="m 183.33371,750.37739 c 6.2836,0 11.5464,2.1065 15.7774,6.3109 4.231,4.2032 6.3525,9.3827 6.3525,15.5287 0,6.0975 -2.1118,11.2672 -6.3332,15.5093 -4.231,4.2432 -9.3776,6.3691 -15.4592,6.3691 -6.1493,0 -11.3444,-2.1174 -15.5754,-6.34 -4.2322,-4.2227 -6.3525,-9.3342 -6.3525,-15.3359 0,-4.0007 0.964,-7.7019 2.892,-11.1217 1.928,-3.4113 4.5588,-6.089 7.8935,-8.0208 3.3251,-1.9331 6.9307,-2.8996 10.8049,-2.8996 z m 0.1827,4.0589 c -3.065,0 -5.9752,0.8016 -8.7318,2.406 -2.7468,1.6044 -4.8962,3.7594 -6.4481,6.4747 -1.5421,2.7249 -2.3138,5.7494 -2.3138,9.0928 0,4.9381 1.7067,9.1135 5.1285,12.5139 3.4206,3.4113 7.5463,5.1128 12.3652,5.1128 3.2295,0 6.2074,-0.7834 8.9446,-2.349 2.7469,-1.5644 4.8866,-3.7097 6.4191,-6.4262 1.5324,-2.7152 2.3041,-5.73 2.3041,-9.054 0,-3.3046 -0.7717,-6.2915 -2.3041,-8.9583 -1.5325,-2.6667 -3.7013,-4.8023 -6.4869,-6.4067 -2.7855,-1.6044 -5.7441,-2.406 -8.8768,-2.406 z m -10.0671,2.7104 c -1.7853,1.2503 -3.3214,2.7989 -4.5527,4.5586 l -0.1065,0.7106 0.1125,-0.2146 -0.0617,0.2862 c 0.906,-1.4043 1.9849,-2.6437 3.2392,-3.723 -0.0508,0.0109 -0.1077,0.0169 -0.1754,0.0194 0.0786,-0.1674 0.5419,-0.4803 0.6689,-0.6318 0.0327,0.0533 0.0677,0.0945 0.1016,0.1236 0.3774,-0.2971 0.7693,-0.5808 1.1757,-0.8513 -0.0629,-0.023 -0.1246,-0.0448 -0.1742,-0.0849 l 0.2226,-0.1358 z m 19.8632,-0.4329 0.0702,0.0388 -0.0146,0.2826 c 0.4052,0.1806 0.4391,0.3468 0.6955,0.5251 0.1028,0.0703 0.1851,0.0557 0.2734,0.1152 l 0.006,0.1528 c -0.1705,0.004 -0.0701,-0.0485 -0.2503,-0.0922 -0.0339,0.0218 -0.0799,0.0618 -0.1295,0.1128 2.043,1.4576 3.6855,3.2573 4.9169,5.4001 1.0765,1.8737 1.778,3.905 2.0997,6.0939 0.1089,0.0618 0.2117,0.1649 0.3073,0.2959 0.1306,-0.6525 0.3398,-1.2758 0.6144,-1.8627 -1.2035,-4.7199 -4.2104,-8.6806 -8.156,-11.169 z m -13.4236,32.213 c -0.1439,-0.2474 -0.5624,0.0291 -1.0958,-0.6718 -0.1282,-0.1686 -0.0629,-0.3056 -0.1052,-0.53 -0.5927,-0.3371 -0.2286,-0.3444 -0.2166,-0.827 -0.0955,-0.0946 -0.1608,-0.0619 -0.2358,-0.1565 0.0641,-0.1091 0.0798,-0.023 0.1548,-0.2001 0.0508,-0.1285 -0.004,-0.1333 0.1512,-0.1964 0.2516,-0.1055 0.3435,0.0158 0.5213,-0.228 -0.0593,-0.3723 -0.4511,-0.3092 -0.4112,-0.6027 0.2346,-0.0691 0.4995,0.0412 0.6749,-0.0497 0.1839,-0.1298 0.1669,-0.3626 0.3266,-0.5457 0.6265,-0.7143 0.0423,-1.0539 0.3907,-1.3631 0.0399,-0.0352 0.5322,-0.2959 0.5842,-0.3105 0.456,-0.12 0.6495,0.0497 0.8515,-0.9047 0.1113,-0.519 -0.0702,-1.1363 0.3084,-1.4928 0.3496,-0.3262 0.6774,-0.5008 0.4972,-1.163 -0.0859,-0.3104 -0.2807,-0.2534 -0.5407,-0.3298 -0.1887,-0.051 -0.3048,-0.2777 -0.5201,-0.382 -0.2105,-0.1031 -0.508,-0.0825 -0.7693,-0.0946 -0.2613,-0.0122 -0.3846,-0.1419 -0.6048,-0.2802 -0.1596,-0.1006 -0.1354,-0.0836 -0.3241,-0.1212 -0.2335,-0.0449 -0.2613,-0.2984 -0.6919,-0.1565 -0.1633,0.051 -0.1282,0.1722 -0.2104,0.2717 -0.2202,-0.1031 -0.2686,-0.0983 0.001,-0.4487 0.1681,-0.2183 0.0496,-0.3226 -0.0871,-0.4984 -0.1742,-0.2292 -0.2226,-0.496 -0.7681,-0.7155 -0.3604,-0.1456 -0.9386,0.005 -1.1091,-0.3687 -0.115,-0.2462 0.005,-0.1637 -0.4222,-0.3226 -0.3387,-0.1261 -0.1729,-0.2219 -0.2915,-0.4766 -0.1875,-0.2352 -0.7559,0.1383 -1.4164,-0.0837 -0.1548,-0.0521 -0.1766,-0.1224 -0.2709,-0.2425 -0.7487,-0.017 -0.5032,0.1868 -0.5842,0.479 l -0.0339,0.0667 c -0.002,0.008 -0.0109,0.0219 -0.0217,0.0316 -0.1912,-0.2644 0.0108,-0.5057 -0.0134,-0.7289 -0.462,-0.1528 -0.2322,0.1407 -0.387,0.2923 -0.052,0.0533 -0.1246,0.0485 -0.127,0.0485 -0.1331,0.0242 -0.1657,-0.0631 -0.3278,0.245 -0.0871,0.1649 -0.1984,0.3201 -0.2443,0.4875 -0.0569,0.2085 -0.1839,0.3092 -0.0412,0.5226 0.0859,0.1334 0.2577,0.3008 0.2855,0.4609 0.0641,0.3905 -0.4125,0.325 -0.537,0.9289 -0.0883,0.4232 0.104,0.3493 0.1729,0.6051 0.046,0.1686 0.0133,0.4803 0.0508,0.684 0.0557,0.2886 0.1488,0.2813 0.3218,0.4317 l 0.6894,0.7956 c 0.196,0.2619 0.3629,0.6754 0.6157,0.8634 0.5455,0.4026 1.0874,0.0958 1.4889,1.5219 0.1101,0.393 0.2939,0.6379 0.4778,1.003 0.1246,0.2498 0.075,0.3783 0.1004,0.6487 0.023,0.1941 0.1125,0.3893 0.1693,0.5567 l 0.4246,1.1011 c 0.2649,0.4281 0.5697,0.5033 0.6894,0.7968 0.1863,0.4596 -0.052,0.2449 0.5866,0.8949 0.069,0.0728 0.1017,0.1092 0.1754,0.1735 l 0.3835,0.3626 c 0.0737,0.0606 0.1451,0.0945 0.2443,0.1443 0.1185,0.0642 0.4003,0.2061 0.5116,0.228 0.1936,0.0375 0.5854,0.0291 0.5588,-0.1541 z m -6.4396,-31.7801 c -1.7853,1.2503 -3.3214,2.7989 -4.5527,4.5586 l -0.1065,0.7106 0.1125,-0.2146 c -0.3508,1.9451 -2.3816,4.8399 -1.6111,6.5813 0.2262,0.5118 -0.0351,2.4048 0.6435,2.6522 0.0314,-0.4742 -0.606,-1.6214 -0.2637,-1.9803 l 0.7185,2.3186 c 0.1258,0.4985 -0.0992,0.8004 0.3169,1.2103 0.3193,0.3177 0.5745,0.4548 1.0293,0.4475 0.8987,-0.0109 0.5709,0.2692 0.9761,0.5494 0.2734,0.1879 0.6943,0.3735 0.8733,0.6488 0.3145,0.479 0.1004,0.3444 0.7656,0.7603 0.5576,0.3493 0.3847,-0.01 0.7064,-0.1212 0.1185,-0.0401 0.1766,10e-4 0.2891,-0.034 0.008,-0.4572 -1.0414,0.1795 -1.2942,-0.7943 -0.0738,-0.2692 0.1197,-0.7846 -0.1101,-0.9484 -0.0556,-0.0376 -0.5769,-0.0824 -0.8491,-0.1661 -0.0363,-0.5663 0.4487,-0.7264 0.2238,-1.3958 -0.7016,-0.0691 -0.456,0.5736 -1.0366,0.6391 -1.0596,0.1212 -0.854,-1.5523 -0.4935,-2.2096 0.3048,-0.5639 0.843,-0.2813 1.2797,-0.3359 l 0.254,-0.3323 c 0.1609,0 0.5915,0.0873 0.7947,0.1201 0.0544,0.3104 0.2395,1.1787 0.583,1.0635 0.1778,-0.1225 -0.0762,-0.998 -0.0266,-1.3048 0.0725,-0.4536 1.143,-0.7119 1.2809,-1.4322 0.1826,-0.9447 0.3193,-0.4876 0.485,-0.8805 0.2395,-0.5675 0.4439,-0.388 0.7911,-0.6172 0.2225,-0.148 -0.0593,-0.3675 0.5999,-0.7677 0.2431,-0.1467 2.3731,-0.0206 2.0151,-0.6536 -0.3121,-0.1892 -0.4693,0.3917 -0.8963,0.1297 -0.4076,-0.2486 0.0726,-0.4778 0.052,-0.7252 -0.3592,-0.12 -0.6035,0.205 -0.9035,0.1007 0.2492,-0.6379 1.853,-0.3226 2.2231,-0.6537 0.2008,-0.177 0.2928,-0.1006 0.5226,-0.2122 0.4898,-0.2352 0.0121,-0.5493 -0.0472,-0.633 -0.0665,-0.0946 -0.0351,-0.1564 -0.104,-0.2462 -0.0944,-0.1334 -0.271,-0.0715 -0.4463,-0.2474 -0.0581,-0.3274 0.0786,-0.5566 -0.1343,-0.7737 -0.2105,-0.2146 -0.1984,-0.4256 -0.3943,-0.5227 -0.1512,0.1638 -0.3181,0.4827 -0.5758,0.5033 -0.4306,0.0376 -0.2177,-0.4305 -0.2141,-0.7021 -0.7208,-0.3129 -1.0402,-1.0587 -1.4768,0.1528 -0.0992,0.2825 -0.2335,0.2983 -0.329,0.4814 -0.0206,0.1455 0.6459,0.5833 -0.2625,0.9192 -0.8261,0.3056 -0.1875,0.5712 -0.5201,1.0017 -0.5963,0.2692 -0.3169,-0.5457 -0.358,-0.6912 -0.1827,-0.6634 -2.2086,-0.7895 -0.6931,-1.9682 l 0.6762,-0.6125 c 1.0849,-0.9168 1.1793,-0.6184 1.6982,-0.7882 0.2757,-0.091 0.7293,-0.6658 0.2757,-0.7507 -0.2866,0.005 -0.3894,0.3432 -0.7063,0.3287 -0.2299,-0.4718 0.0604,-0.553 0.0121,-1.1024 -0.6871,0.0558 -0.4923,0.5918 -0.8419,0.9144 -0.4838,0.4463 -0.7015,0.0485 -1.3547,0.1431 l -0.1137,0.1965 c -0.5866,0.0388 -0.2975,-0.4208 -0.4463,-0.7337 -0.2153,-0.0437 -0.3254,0.0485 -0.5806,0.057 0.0786,-0.1674 0.5419,-0.4803 0.6689,-0.6318 0.1778,0.2922 0.3931,0.1528 0.4572,0.4523 l -0.2806,0.1188 -0.0351,0.433 c 0.2843,0.007 0.3919,0.0327 0.6241,-0.0801 0.5105,-0.2461 0.398,0.3457 0.8153,-0.5517 0.2225,-0.473 0.5648,-0.5761 0.1971,-0.6937 -0.2322,-0.0752 -0.1161,0.0303 -0.2056,-0.1807 -0.0895,-0.2195 -0.3266,-0.1977 -0.4693,-0.3105 l 0.2226,-0.1358 z m 19.8632,-0.4329 0.0702,0.0388 -0.0146,0.2826 c 0.4052,0.1806 0.4391,0.3468 0.6955,0.5251 0.1028,0.0703 0.1851,0.0557 0.2734,0.1152 l 0.006,0.1528 c -0.1705,0.004 -0.0701,-0.0485 -0.2503,-0.0922 -0.1355,0.0849 -0.4452,0.4681 -0.5588,0.6076 -0.3569,0.4511 -0.2988,0.004 -0.3774,0.6948 -0.1851,0.0813 -0.5238,0.0522 -0.7512,0.0267 l 0.1283,-0.2813 c 1.7187,-0.1031 -1.2314,-1.1788 -1.4636,-1.2612 -0.9991,-0.3517 -1.2349,0.4741 -1.466,1.2575 -0.2237,0.7701 -0.8878,0.8368 -0.4402,1.6275 0.2818,0.502 0.6954,0.04 0.7196,0.0315 0.4318,-0.0473 0.3448,0.1698 0.4972,0.3456 0.1512,0.1771 0.3725,0.1941 0.3519,0.5009 -0.7499,0.5008 -1.1998,1.089 -1.8494,1.6929 -0.3302,0.2777 -0.5334,0.005 -0.9241,0.0873 0.0654,0.4584 0.8975,0.3602 0.9253,0.9944 0.0254,0.5991 -1.0002,0.3081 -1.4768,0.3736 -0.1597,0.6099 -0.225,1.8239 0.6423,1.9124 1.8711,0.1916 1.0075,-1.585 2.3731,-1.7596 0.2068,-0.0279 0.2564,-0.1553 0.5092,-0.1832 0.6266,-0.0642 0.525,0.1177 0.9423,0.4354 0.283,0.245 1.0196,0.6658 0.7245,1.0162 -0.2371,0.017 -0.2964,-0.0897 -0.5613,-0.0278 -0.007,0.3092 0.1839,0.3553 0.5359,0.4196 0.7305,-0.9823 0.7063,-0.8805 -0.3786,-1.5378 -0.2214,-0.1346 -0.3822,-0.2413 -0.404,-0.5226 0.9894,0.005 2.1227,2.1707 2.5328,2.241 -0.0375,-0.4899 -0.4996,-1.0914 0.002,-1.1666 0.0665,0.0607 0.606,0.8077 0.7257,0.9617 0.2831,0.3711 0.6556,0.01 1.3559,0.0897 0.1512,0.2547 0.3556,1.2625 -0.0665,1.3668 -1.0402,0.2473 -1.9074,-0.5227 -2.4348,-0.4451 -0.0919,0.245 -0.0436,0.5663 -0.5129,0.3408 -0.5793,-0.2753 -0.1318,-0.1868 -0.9495,-0.3408 -1.0281,-0.1928 -0.6362,-0.2935 -0.7281,-0.9374 -0.1222,-0.2195 -1.5373,-0.1371 -1.7877,-0.0558 -0.4052,0.1261 -0.7657,0.2898 -1.166,0.3626 -0.3762,0.0691 -0.4391,-0.4075 -0.9289,0.3238 -0.1258,0.1867 -0.3411,0.3626 -0.4355,0.5384 -0.1584,0.2947 0.0774,0.5178 -0.2564,0.7179 -0.1403,0.0849 -0.2129,0.0631 -0.3472,0.1601 -0.2104,0.1504 -0.7196,1.1678 -0.947,1.5171 -0.2843,0.553 0.3471,0.9277 -0.0532,1.5462 -0.6314,0.9762 0.7063,1.9719 1.3087,2.4751 0.5213,0.4342 0.5673,0.57 1.3752,0.604 1.3753,0.0582 1.7515,-0.7374 2.3695,-0.2996 0.3157,0.2219 0.15,0.2971 0.6738,0.3141 0.7426,0.0231 0.2673,0.9047 0.2794,1.357 0.0229,0.8041 0.7172,0.6197 0.7317,2.2302 0.005,0.5566 -1.0535,0.9374 -0.6398,2.1186 0.2201,0.627 0.0714,1.169 0.1403,1.8263 0.1004,0.0667 0.0956,-0.0364 0.2068,0.1577 l -0.1475,0.0897 c 0.001,0.1904 -0.004,0.251 0.1076,0.3384 -0.133,0.1916 -0.0919,0.2 -0.1221,0.5069 l 0.1669,0.1576 c -0.0351,0.0776 -0.1113,0.0776 -0.1464,0.1916 0.9435,0.3105 2.5897,-0.77 2.9755,-1.6299 0.2032,-0.4511 0.2371,-0.3686 0.5479,-0.6209 0.294,-0.2413 0.1803,-0.5238 0.3194,-0.8573 0.2624,-0.6416 0.7753,-0.6816 1.1817,-1.1218 0.4487,-0.4826 0.1996,-1.3606 0.2358,-2.0204 0.0641,-1.0975 2.609,-2.6133 2.2643,-4.6907 -0.4415,0.0655 -0.9096,0.9059 -1.0837,-0.0121 -0.0714,-0.3747 -0.2202,-0.3505 -0.375,-0.5906 -0.1318,-0.2086 -0.1524,-0.4887 -0.2721,-0.6973 -0.3315,-0.5785 -1.281,-2.0701 -1.264,-2.5891 0.3181,-0.0219 1.5192,2.3187 1.6583,2.6594 0.2467,0.6124 0.1959,1.8264 1.2325,0.5409 0.9459,-1.1775 1.6268,-1.3776 0.5068,-2.7383 -0.254,0.0291 -0.173,0.1176 -0.3605,0.2244 -0.1898,-0.1904 -0.7487,-1.0272 -0.7015,-1.1242 0.0786,-0.0158 1.0826,1.0635 1.7938,1.072 0.1923,0.002 0.3701,0.1419 0.5298,0.3602 0.1306,-0.6525 0.3398,-1.2758 0.6144,-1.8627 -1.2035,-4.7199 -4.2104,-8.6806 -8.156,-11.169 l -0.433,0.1067 z m -19.1338,15.6499 c 0.0229,0.2389 0.0955,0.0595 0.0604,0.2438 l -0.2927,0.0909 c 0.0278,0.0789 0.069,0.1031 0.1923,0.1359 0.2299,0.0582 1.0632,0.1746 1.1467,-0.0219 0.1258,-0.2837 -0.889,-0.6827 -1.1067,-0.4487 z m 12.9458,-10.9798 c -0.6012,0.4135 -0.1476,1.2588 0.2987,0.8538 0,0 0.5649,-0.7495 0.0859,-0.8623 -0.1113,-0.0254 -0.2855,-0.0582 -0.3846,0.008 z m -15.3081,10.4317 c 0.5286,0.2037 0.1573,-0.4427 1.0439,0.1916 0.2044,0.1467 0.3169,0.5712 1.039,0.2741 0.0169,-0.2159 -0.0835,-0.1589 -0.369,-0.4366 -0.1886,-0.1831 -0.1681,-0.2741 -0.4741,-0.3444 -0.3943,-0.091 -0.7015,-0.0885 -1.0499,0.0909 -0.1463,0.0752 -0.1863,0.0692 -0.1899,0.2244 z m 6.9646,-6.8809 c 0.005,0.01 0.007,0.0146 0.008,0.0291 0.001,0.0206 0.0133,0.0509 0.0157,0.0655 0.0302,0.1164 0.023,0.2256 0.2129,0.2486 0.1693,0.0194 0.3652,0.0146 0.4923,-0.0631 0.081,-0.2461 -0.0121,-0.6002 -0.167,-0.7227 -0.0883,-0.074 -0.1826,-0.074 -0.2963,-0.131 -0.1621,-0.0837 0.004,0.023 -0.2177,-0.2389 -0.2407,-0.008 -0.4306,0.285 -0.635,0.5457 -0.3714,0.4718 0.2963,0.2656 0.5866,0.2668 z m 5.7272,-6.2648 c -0.1052,-0.0619 -0.0339,-0.017 -0.1343,-0.1164 -0.0798,-0.0789 -0.0326,-0.0558 -0.1378,-0.1116 -0.0146,0.0109 -0.1029,0.0497 -0.1416,0.1795 -0.0846,0.2886 0.0895,0.6087 0.2794,0.6682 0.831,0.2619 1.991,-0.5445 1.0741,-0.8513 -0.1572,-0.0534 -0.3689,-0.0631 -0.5382,-0.0401 -0.3472,0.0461 -0.1597,0.1528 -0.4016,0.2717 z m 3.6468,3.1845 c -0.3363,0.1916 -0.3278,0.2862 -0.1198,0.5057 -0.1391,0.1589 -0.0979,0.1128 -0.133,0.3845 0.2782,-0.017 0.5503,-0.0425 0.7886,-0.0898 0.2722,-0.0558 0.4814,-0.0618 0.3992,-0.3941 -0.0605,-0.2522 -0.1827,-0.3202 -0.3472,-0.473 -0.2056,-0.1916 -0.26,-0.1576 -0.4161,-0.4014 -0.1366,-0.2073 -0.3205,-0.5918 -0.5624,-0.6488 -0.1367,-0.0303 -0.2274,0.007 -0.2504,0.1419 -0.0314,0.2135 0.3133,0.7264 0.4149,0.7956 0.1064,0.0703 0.1802,0.0303 0.2262,0.1794 z m -8.5116,-6.6007 c -0.4874,1.0587 -1.0729,0.6536 -1.6244,1.0296 l -0.0303,0.3735 c -0.2769,0.137 -0.5624,-0.2486 -0.658,0.2013 0.1379,0.0643 0.2286,0.0715 0.4355,0.0655 0.2927,-0.008 0.5915,0.2255 0.7572,-0.097 0.0907,-0.1734 -0.023,-0.2777 0.0822,-0.4669 0.2093,-0.1213 0.4197,0.0327 0.6278,-0.148 0.1923,-0.1661 0.2249,-0.2522 0.5225,-0.285 0.2842,-0.0339 0.5951,-0.2037 0.7741,-0.4074 l 0.1681,-0.2692 c -0.2298,-0.1407 -0.8128,-0.0389 -1.0547,0.004 z m 17.2542,26.1823 c 0.5104,0.0351 0.5044,-0.1286 0.7197,-0.4645 l 0.4088,-0.7616 c 0.1524,-0.2607 0.2189,-0.4935 0.3665,-0.8089 0.1306,-0.2764 0.3205,-0.6621 0.1464,-0.9835 -0.1924,0.0716 -0.0242,0.1359 -0.1984,0.3505 l -0.4621,0.3954 c -0.127,0.1164 -0.0459,0.0363 -0.2116,0.1067 -0.3193,0.1358 -0.1391,0.8173 -0.5141,1.2381 -0.1415,0.1565 -0.1669,0.1347 -0.2117,0.3736 -0.035,0.1964 -0.0677,0.348 -0.0435,0.5542 z m -20.647,-23.4173 0.075,-0.3542 c -0.381,0.0752 -0.3641,0.1929 -0.5915,0.3893 -0.0774,0.0667 -0.1185,0.0873 -0.179,0.165 -0.0399,0.268 0.0218,0.4535 0.2649,0.5093 0.3411,0.0812 0.4838,-0.0655 0.7415,-0.0764 0.2237,-0.008 0.4572,0.1661 0.3096,0.3456 -0.1475,0.1819 -0.3943,0.1164 -0.3955,0.4378 0.6084,0.1043 0.1548,-0.2935 0.71,-0.2413 0.01,0.2316 -0.0907,0.2862 -0.2588,0.3759 -0.2335,0.1225 -0.1658,0.1952 -0.1524,0.4463 -0.0835,-0.0328 -0.6617,-0.3129 -0.8092,0.1176 0.1645,0.1734 0.4306,0.0837 0.71,0.1322 l 0.3616,0.4438 c 0.1742,0.2014 0.248,0.2389 0.6145,0.2402 -0.01,-0.2353 -0.1911,-0.2972 -0.1802,-0.5276 0.2999,-0.0521 0.3265,0.2923 0.6289,0.2802 0.2032,-0.4402 -0.3653,-0.4863 -0.2649,-0.9411 0.4911,-0.2243 0.5383,0.5566 1.016,0.091 0.248,-0.2365 0.1839,-0.1286 0.1936,-0.2632 -1.091,-0.4523 -0.5842,-0.7325 -0.6169,-1.0951 -0.0327,-0.3783 -0.2879,-0.1722 -0.8285,-0.6172 -0.1355,-0.114 -0.2335,-0.0498 -0.3798,-0.0413 -0.2927,-0.6451 -0.9689,0.1832 -0.9689,0.1832 z m 3.8016,-1.6966 0.3653,0.01 c 0.2443,0.3492 0.1065,0.5469 0.046,0.952 -0.0532,0.3395 -0.046,0.0157 -0.2383,0.3917 -0.0956,0.1855 -0.1972,0.2061 -0.1972,0.4559 0.2335,0.0449 0.3798,-0.0424 0.5625,-0.1188 -0.0605,0.211 -0.1573,0.2086 -0.2758,0.3359 -0.104,0.114 -0.1161,0.2219 -0.2625,0.365 -0.1197,0.1213 -0.2467,0.1819 -0.2213,0.3905 0.023,0.1734 0.1125,0.3226 0.2032,0.4354 0.1064,0.1334 0.1947,0.2061 0.2298,0.4075 0.075,0.4462 0.0169,0.2983 0.3871,0.5384 0.0895,0.057 0.1137,0.1067 0.1802,0.1382 0.1875,0.0958 0.3532,-0.0315 0.5213,-0.0557 l 0.1282,0.3153 c 0.1597,0.0606 0.485,-0.017 0.5939,-0.108 0.0835,-0.0703 0.2189,-0.3759 0.2479,-0.4838 -0.283,-0.4766 0.167,-0.5579 0.2166,-0.8307 0.0302,-0.1735 -0.0194,-0.2208 0.0435,-0.4196 0.0714,-0.0437 0.1318,-0.0679 0.1766,-0.1116 0.0714,-0.0606 0.0847,-0.1298 0.1705,-0.1843 0.121,-0.0764 0.3581,-0.0558 0.5564,-0.1371 0.0121,-0.2595 0.1174,-0.3153 0.2093,-0.5008 0.1463,-0.302 0.1222,-0.1831 0.4451,-0.2607 0.2226,-0.4136 0.4233,-0.4015 0.2576,-0.6476 -0.0846,-0.1225 -0.1306,-0.0194 -0.1245,-0.2292 0.1524,-0.0789 0.2733,10e-4 0.4257,0.0315 -0.0242,-0.2401 0.01,-0.1928 -0.1705,-0.2911 -0.1307,-0.0679 -0.1186,-0.08 -0.2444,-0.1819 -0.306,-0.2498 -0.2261,-0.1055 -0.3193,-0.5323 -0.0568,-0.2511 -0.2564,-0.2656 -0.4403,-0.4221 -0.3144,-0.268 -0.156,-0.2583 -0.1874,-0.6694 -0.1597,0.004 -0.3182,0.0413 -0.4923,0.0861 -0.2456,0.0619 -0.2903,-0.0194 -0.5201,-0.01 -0.2468,0.0146 -0.3605,0.2984 -0.8262,0.3735 -0.8043,0.1322 -0.4886,0.2268 -0.7729,0.3978 -0.3253,0.1953 -0.6592,-0.1661 -0.6737,0.57 z"
       style="fill:#072332;fill-rule:evenodd"
       id="path3700" />
  </g>
</svg>
