<?xml version="1.0" encoding="UTF-8"?>
<!DOCTYPE svg PUBLIC "-//W3C//DTD SVG 1.1//EN" "http://www.w3.org/Graphics/SVG/1.1/DTD/svg11.dtd">
<!-- Creator: CorelDRAW -->
<svg xmlns="http://www.w3.org/2000/svg" xml:space="preserve" width="5.15085in" height="3.65422in" version="1.1" style="shape-rendering:geometricPrecision; text-rendering:geometricPrecision; image-rendering:optimizeQuality; fill-rule:evenodd; clip-rule:evenodd"
viewBox="0 0 5150.85 3654.22"
 xmlns:xlink="http://www.w3.org/1999/xlink">
 <defs>
  <style type="text/css">
   <![CDATA[
    .fil1 {fill:black}
    .fil0 {fill:black;fill-rule:nonzero}
   ]]>
  </style>
 </defs>
 <g id="Layer_x0020_1">
  <metadata id="CorelCorpID_0Corel-Layer"/>
  <path id="_9WT" class="fil0" d="M255.62 3642.01c201.53,0 274.82,-106.44 274.82,-299.24 0,-198.91 -83.76,-285.29 -283.54,-285.29l-211.13 0c-20.06,0 -35.77,15.7 -35.77,35.77l0 512.99c0,20.07 15.7,35.77 35.77,35.77l219.85 0zm70.67 -288.78c0,70.67 -5.24,123.89 -88.12,123.89 -20.07,0 -35.77,-15.7 -35.77,-35.77l0 -183.21c0,-20.07 15.7,-35.77 35.77,-35.77 37.52,0 61.07,8.72 71.54,26.17 11.34,17.45 16.58,52.35 16.58,104.69z"/>
  <path id="1" class="fil0" d="M550.5 3597.51c-5.23,22.68 12.22,44.49 35.77,44.49l123.01 0c17.45,0 32.28,-12.21 35.77,-29.66l1.74 -7.85c3.49,-17.45 18.32,-29.66 36.64,-29.66l74.16 0c16.57,0 31.41,11.34 35.77,27.92l2.62 11.34c4.36,16.57 19.19,27.92 35.77,27.92l129.12 0c23.56,0 41,-21.81 35.77,-45.37l-114.29 -510.37c-4.36,-16.57 -19.19,-28.79 -36.64,-28.79l-246.9 0c-17.45,0 -32.28,12.22 -35.77,28.79l-112.54 511.25zm283.54 -381.26l25.3 161.4c3.49,22.68 -13.96,42.75 -36.64,42.75 -22.69,0 -40.13,-20.07 -36.64,-42.75l26.17 -161.4 21.81 0z"/>
  <path id="2" class="fil0" d="M1383.68 3642.01c201.53,0 274.82,-106.44 274.82,-299.24 0,-198.91 -83.76,-285.29 -283.54,-285.29l-211.13 0c-20.06,0 -35.77,15.7 -35.77,35.77l0 512.99c0,20.07 15.7,35.77 35.77,35.77l219.85 0zm70.67 -288.78c0,70.67 -5.24,123.89 -88.12,123.89 -20.07,0 -35.77,-15.7 -35.77,-35.77l0 -183.21c0,-20.07 15.7,-35.77 35.77,-35.77 37.52,0 61.07,8.72 71.54,26.17 11.34,17.45 16.58,52.35 16.58,104.69z"/>
  <path id="3" class="fil0" d="M1802.45 3057.47c-18.32,0 -33.15,14.83 -33.15,33.15l0 270.45c0,41.88 -0.87,70.67 -2.61,87.24 -0.87,10.47 -2.62,17.45 -3.49,21.81 -0.87,4.36 -3.49,7.85 -7.85,10.47 -3.49,3.49 -6.98,5.24 -10.47,5.24l-26.17 0c-20.94,0 -37.52,16.57 -37.52,37.52l0 92.48c0,20.94 16.57,37.52 37.52,37.52l47.98 0c120.39,-6.11 205.02,-15.7 205.02,-165.76l0 -396.96c0,-18.32 -14.83,-33.15 -33.15,-33.15l-136.1 0z"/>
  <path id="4" class="fil0" d="M2565.82 3349.74c0,-198.04 -70.67,-303.61 -278.31,-303.61 -206.76,0 -278.3,105.56 -278.3,302.73 0,197.17 73.28,304.48 279.18,304.48 205.89,0 277.43,-107.31 277.43,-303.61zm-352.46 0c0,-49.73 5.23,-85.5 14.83,-107.31 9.59,-21.81 29.66,-32.28 60.2,-32.28 30.54,0 50.6,10.47 59.33,31.41 9.59,21.81 13.96,57.58 13.96,107.31 0,50.6 -4.36,86.37 -13.96,108.18 -9.6,21.81 -29.67,32.28 -59.33,32.28 -30.54,0 -50.6,-11.34 -60.2,-33.15 -9.6,-21.81 -14.83,-56.71 -14.83,-106.44z"/>
  <path id="5" class="fil0" d="M2808.36 3467.52c0,-11.34 8.72,-20.06 20.06,-20.06l1.75 0c8.72,0 15.7,5.23 19.19,13.09l60.2 168.38c3.49,7.85 10.47,13.09 19.19,13.09l161.4 0c13.96,0 23.56,-13.96 19.19,-27.05l-91.61 -268.71c-0.87,-3.49 -0.87,-8.72 0,-12.21l82.88 -250.39c4.36,-13.09 -5.24,-26.17 -19.19,-26.17l-157.91 0c-8.72,0 -16.58,6.11 -19.2,13.96l-56.7 178.85c-2.62,7.85 -10.47,13.96 -19.2,13.96 -11.34,0 -20.06,-8.72 -20.06,-20.07l0 -166.63c0,-11.34 -8.72,-20.07 -20.07,-20.07l-162.27 0c-11.34,0 -20.07,8.72 -20.07,20.07l0 544.4c0,11.34 8.72,20.07 20.07,20.07l162.27 0c11.34,0 20.07,-8.72 20.07,-20.07l0 -154.42z"/>
  <path id="6" class="fil0" d="M3122.44 3616.71c0,13.96 11.34,25.3 25.3,25.3l388.23 0c13.09,0 24.43,-11.34 24.43,-25.3l0 -111.67c0,-13.09 -11.34,-24.43 -24.43,-24.43l-185.83 0c-13.96,0 -25.3,-11.34 -25.3,-25.3l0 -2.62c0,-13.09 11.34,-24.43 25.3,-24.43l133.48 0c13.08,0 24.43,-11.34 24.43,-25.3l0 -109.93c0,-13.09 -11.34,-24.43 -24.43,-24.43l-133.48 0c-13.96,0 -25.3,-11.34 -25.3,-25.3 0,-13.09 11.34,-24.43 25.3,-24.43l185.83 0c13.09,0 24.43,-11.34 24.43,-25.3l0 -111.67c0,-13.09 -11.34,-24.43 -24.43,-24.43l-388.23 0c-13.96,0 -25.3,11.34 -25.3,24.43l0 534.8z"/>
  <path id="7" class="fil0" d="M4050.71 3105.46c0,-20.94 -14.83,-39.26 -34.9,-42.75l-0.87 0c-74.15,-11.34 -139.59,-16.57 -194.55,-16.57 -150.93,0 -231.19,44.49 -231.19,205.02 0,61.94 14.83,105.56 44.49,132.61 28.79,27.05 84.63,47.11 165.76,60.2 30.54,4.36 49.73,7.85 56.71,10.47 6.98,2.62 10.47,6.98 10.47,13.09 0,13.09 -14.83,20.07 -45.37,20.07 -47.11,0 -105.57,-4.36 -179.72,-13.96 -21.81,0 -40.13,17.45 -41.87,39.26l-4.36 75.03c-0.87,20.07 12.21,38.39 32.28,42.75 68.05,16.58 142.2,23.56 212,23.56 142.21,0 231.2,-47.11 231.2,-200.66 0,-34.9 -3.49,-62.82 -9.6,-83.76 -22.68,-74.15 -126.5,-95.09 -191.93,-109.05 -36.65,-7.85 -58.46,-13.96 -65.43,-17.45 -6.98,-3.49 -10.47,-8.72 -10.47,-14.83 0,-6.11 2.61,-10.47 8.72,-13.09 6.11,-1.75 27.92,-2.62 65.43,-2.62 30.54,0 75.03,2.62 134.35,8.72 24.43,0 45.37,-13.96 46.24,-40.13l2.62 -75.9z"/>
  <path id="8" class="fil0" d="M4103.05 3621.94c0,11.34 8.72,20.07 20.07,20.07l158.78 0c11.34,0 20.06,-8.72 20.06,-20.07l0 -133.48c0,-11.34 -8.72,-20.07 -20.06,-20.07l-158.78 0c-11.34,0 -20.07,8.72 -20.07,20.07l0 133.48z"/>
  <path id="9" class="fil0" d="M4351.7 3607.11c0,19.19 15.7,34.9 34.02,34.9l134.35 0c18.32,0 34.03,-15.7 34.03,-34.9l0 -515.61c0,-18.32 -15.7,-34.03 -34.03,-34.03l-134.35 0c-18.32,0 -34.02,15.7 -34.02,34.03l0 515.61z"/>
  <path id="10" class="fil0" d="M5150.85 3349.74c0,-198.04 -70.67,-303.61 -278.31,-303.61 -206.76,0 -278.3,105.56 -278.3,302.73 0,197.17 73.28,304.48 279.18,304.48 205.89,0 277.43,-107.31 277.43,-303.61zm-352.46 0c0,-49.73 5.23,-85.5 14.83,-107.31 9.59,-21.81 29.66,-32.28 60.2,-32.28 30.54,0 50.6,10.47 59.33,31.41 9.59,21.81 13.96,57.58 13.96,107.31 0,50.6 -4.36,86.37 -13.96,108.18 -9.6,21.81 -29.67,32.28 -59.33,32.28 -30.54,0 -50.6,-11.34 -60.2,-33.15 -9.6,-21.81 -14.83,-56.71 -14.83,-106.44z"/>
  <g id="_9WF">
   <g>
    <path class="fil1" d="M3923.13 2134.49c-3.98,-8.13 -9.22,-15.82 -15.56,-22.87 -9.77,-10.96 -26.33,-12.2 -37.47,-2.83 -11.26,9.28 -13.16,25.7 -4.28,37.4 0.59,0.75 4.47,6.09 9,13.16 13.71,30.29 -14.43,73.28 -34.57,95.48 -97.4,46.71 -177.45,13.56 -244.61,-101.31 -2.17,-3.69 -3.81,-6.49 -4.94,-8.2 -349.02,-523.64 -910.53,-388.1 -915.77,-386.73 -3.07,0.68 -6.06,1.98 -8.94,3.91 -46.71,31.69 -74.19,73.91 -81.69,125.39 -18.31,125.61 90.01,258.8 94.61,264.41 208.8,254.7 490.59,383.85 837.56,383.85 169.93,0 286.92,-36.85 289.06,-37.58 87.59,-35.85 141.31,-88.2 159.63,-155.66 23.24,-85.38 -16.86,-168.06 -42.03,-208.41z"/>
    <path class="fil1" d="M2484.76 1762.41c-2.79,-1.87 -5.77,-3.13 -8.35,-3.73 -5.62,-1.46 -564.93,-140.29 -916.28,386.67 -1.02,1.59 -2.58,4.17 -4.85,8.07 -67.04,114.91 -147.12,148.15 -244.67,101.37 -20.14,-22.19 -48.33,-65.12 -35.47,-93.73 5.77,-9.31 9.84,-14.77 9.96,-14.96 8.88,-11.64 7.01,-28.06 -4.25,-37.3 -11.33,-9.37 -27.81,-8.17 -37.47,2.76 -6.39,7.11 -11.64,14.8 -14.86,21.54 -25.95,41.68 -66.02,124.43 -42.83,209.76 18.31,67.48 72.29,119.94 161.52,156.34 1.11,0.37 117.98,36.9 286.88,36.9 229,0 560.24,-66.57 838.15,-384.19 11.52,-14.22 112.11,-142.19 94.26,-264.08 -7.44,-51.5 -34.93,-93.67 -81.74,-125.43z"/>
   </g>
   <polygon class="fil1" points="3614.73,924.4 4257.55,360.11 4190.25,269.11 3583.44,901.88 "/>
   <polygon class="fil1" points="3735.2,2.98 3652.64,0 3438.57,815.38 3477,818.44 "/>
   <polygon class="fil1" points="3708.22,1079.89 4536.69,867.03 4495.43,795.42 3690.47,1045.69 "/>
   <path class="fil1" d="M1065.51 1298.76c-121.98,-276.31 -609.8,-393.17 -654.27,-135.18 -41.88,242.78 238.01,74.19 654.27,135.18z"/>
   <path class="fil1" d="M1402.97 1215.8c92.26,-220.8 -106.57,-564.86 -279.09,-449.71 -162.39,108.35 87.14,177.26 279.09,449.71z"/>
   <path class="fil0" d="M2284.36 1437.07c0,-57.56 -23.76,-110.11 -61.95,-148.3 -38.19,-38.19 -90.74,-61.95 -148.3,-61.95 -57.57,0 -110.11,23.76 -148.3,61.95 -38.19,38.19 -61.95,90.74 -61.95,148.3l-97.53 0c0,-84.47 34.73,-161.45 90.53,-217.25 55.8,-55.8 132.77,-90.53 217.25,-90.53 84.47,0 161.45,34.73 217.25,90.53 55.8,55.8 90.53,132.78 90.53,217.25l-97.53 0z"/>
   <path class="fil0" d="M3287 1437.07c0,-57.56 -23.76,-110.11 -61.95,-148.3 -38.19,-38.19 -90.73,-61.95 -148.29,-61.95 -57.57,0 -110.12,23.76 -148.3,61.95 -38.19,38.19 -61.95,90.74 -61.95,148.3l-97.53 0c0,-84.47 34.73,-161.45 90.53,-217.25 55.8,-55.8 132.78,-90.53 217.26,-90.53 84.47,0 161.45,34.73 217.24,90.53 55.8,55.8 90.53,132.78 90.53,217.25l-97.53 0z"/>
  </g>
 </g>
</svg>
