<?xml version="1.0" encoding="utf-8"?>
<!-- Generator: Adobe Illustrator 26.3.1, SVG Export Plug-In . SVG Version: 6.00 Build 0)  -->
<svg version="1.1" id="Layer_1" xmlns="http://www.w3.org/2000/svg" xmlns:xlink="http://www.w3.org/1999/xlink" x="0px" y="0px"
	 viewBox="0 0 191.2 41.2" style="enable-background:new 0 0 191.2 41.2;" xml:space="preserve">
<style type="text/css">
	.st0{fill:#FF9900;}
	.st1{fill:#FDD301;}
</style>
<g>
	<path d="M15.2,36.9c-1.8,0-3.5-0.2-4.7-0.6c-0.6-0.2-1.5-0.6-1.4-1.1c0-0.2,0.1-0.5,1-0.8c0.1,0,0.2,0,0.3-0.1
		c1.4-0.3,2.7-0.7,3-1.5c0.4-1.1,0.2-2.3,0-2.7c0,0,0,0,0,0c0.1,0,0.2-0.1,0.3-0.1c0.5-0.1,1.1-0.2,1.8-0.2c0.7,0,1.3,0.1,1.8,0.2
		c0.2,0,0.3,0.1,0.3,0.1c0,0,0,0,0,0c-0.2,0.4-0.5,1.6,0,2.7c0.3,0.9,1.6,1.2,3,1.5c0.1,0,0.2,0,0.3,0.1c0.9,0.2,1,0.6,1,0.8
		c0.1,0.5-0.9,0.9-1.4,1.1c-1.3,0.4-2.9,0.6-4.7,0.6H15.2z"/>
	<path d="M15.4,37.4h-0.2c-1.9,0-3.6-0.2-4.9-0.6c-1.3-0.4-1.9-0.9-1.8-1.6c0.1-0.4,0.3-0.9,1.4-1.2c0.1,0,0.2,0,0.3-0.1
		c0.7-0.2,2.4-0.5,2.7-1.2c0.3-0.9,0.1-2,0-2.3c-0.1-0.2,0-0.6,0.2-0.7c0.1,0,0.2-0.1,0.4-0.2c1-0.3,2.8-0.3,3.8,0
		c0.2,0.1,0.3,0.1,0.4,0.2c0.1,0.1,0.2,0.2,0.3,0.3c0,0.1,0,0.3-0.1,0.4c-0.1,0.3-0.4,1.4,0,2.3c0.3,0.7,1.9,1.1,2.6,1.2
		c0.2,0,0.2,0.1,0.3,0.1c1.1,0.3,1.3,0.8,1.4,1.2c0.1,0.7-0.5,1.2-1.8,1.6C19,37.2,17.3,37.4,15.4,37.4z M13.8,30.5
		c0.2,0.7,0.2,1.7-0.1,2.6c-0.4,1.1-2,1.5-3.4,1.9c-0.1,0-0.2,0-0.3,0.1c-0.6,0.2-0.6,0.3-0.6,0.4c0,0,0.3,0.3,1.1,0.5
		c1.2,0.4,2.8,0.6,4.6,0.6h0.2c1.8,0,3.4-0.2,4.6-0.6c0.8-0.2,1.1-0.5,1.1-0.6c0,0,0-0.2-0.6-0.3c-0.1,0-0.1,0-0.2-0.1
		c-1.4-0.3-2.9-0.7-3.4-1.9c-0.4-0.9-0.3-2-0.1-2.6C16,30.3,14.6,30.3,13.8,30.5z"/>
</g>
<ellipse class="st0" cx="15.3" cy="36.8" rx="11.7" ry="3.5"/>
<g>
	<path d="M41.9,30.3c-0.5-0.3-0.8-0.7-0.9-1.1c-0.1-0.5,0.1-0.9,0.4-1.4l0.5-0.8c0.3-0.5,0.7-0.8,1.1-0.8c0.4-0.1,0.9,0.1,1.5,0.4
		c0.5,0.3,1.2,0.6,2.1,1c0.9,0.4,1.9,0.6,3.1,0.6c1,0,1.8-0.2,2.4-0.6c0.6-0.4,0.9-1,0.9-1.7c0-0.6-0.3-1.1-0.8-1.5
		c-0.6-0.4-1.3-0.7-2.1-1c-0.9-0.3-1.8-0.7-2.8-1c-1-0.4-1.9-0.8-2.8-1.4s-1.6-1.2-2.1-2.1c-0.6-0.8-0.8-1.9-0.8-3.3
		c0-1.1,0.2-2.1,0.7-3c0.5-0.9,1.1-1.6,1.9-2.2c0.8-0.6,1.7-1,2.8-1.3c1.1-0.3,2.2-0.5,3.4-0.5c1.5,0,2.8,0.2,3.9,0.6
		c1.1,0.4,1.9,0.8,2.5,1.1c0.5,0.3,0.8,0.6,0.9,1.1c0.1,0.5,0,0.9-0.2,1.4l-0.5,0.8c-0.3,0.5-0.6,0.9-1,0.9c-0.4,0.1-0.9,0-1.5-0.2
		c-0.5-0.2-1.1-0.5-1.9-0.7c-0.7-0.3-1.6-0.4-2.5-0.4c-1,0-1.8,0.2-2.3,0.6c-0.5,0.4-0.8,0.9-0.8,1.7c0,0.6,0.3,1.1,0.8,1.5
		c0.6,0.4,1.3,0.7,2.1,1c0.9,0.3,1.8,0.6,2.8,1c1,0.3,1.9,0.8,2.8,1.3c0.9,0.5,1.6,1.2,2.1,2.1c0.6,0.8,0.8,1.9,0.8,3.2
		c0,1-0.2,2-0.6,2.8c-0.4,0.9-1,1.6-1.8,2.2c-0.8,0.6-1.7,1.1-2.8,1.5c-1.1,0.4-2.3,0.5-3.6,0.5c-1.9,0-3.4-0.3-4.7-0.8
		C43.6,31.3,42.6,30.8,41.9,30.3z"/>
	<path d="M62.6,11c0-1.3,0.6-1.9,1.9-1.9H66c0.6,0,1.1,0.2,1.4,0.5c0.3,0.3,0.5,0.7,0.5,1.1v1c0,0.2,0,0.3,0,0.4c0,0.1,0,0.2,0,0.3
		v0.3h0.1c0.4-0.8,1-1.4,1.7-2c0.6-0.5,1.4-1,2.3-1.4c0.9-0.4,2.1-0.6,3.4-0.6c1.6,0,3,0.3,4.3,0.9c1.3,0.6,2.3,1.4,3.2,2.5
		c0.9,1.1,1.6,2.3,2.1,3.8c0.5,1.5,0.7,3.1,0.7,4.9c0,1.8-0.3,3.5-0.8,5c-0.5,1.5-1.3,2.7-2.2,3.8c-0.9,1.1-2.1,1.9-3.4,2.4
		c-1.3,0.6-2.7,0.9-4.2,0.9c-1.2,0-2.2-0.2-3.1-0.5c-0.8-0.4-1.5-0.8-2-1.2c-0.6-0.5-1.1-1.1-1.5-1.8h-0.1c0,0.2,0,0.3,0,0.5
		c0,0.2,0.1,0.4,0.1,0.6c0,0.2,0,0.5,0,0.8v8.1c0,1.3-0.6,1.9-1.9,1.9h-1.9c-1.3,0-1.9-0.6-1.9-1.9V11z M68.2,20.7
		c0,0.9,0.1,1.8,0.4,2.6c0.2,0.8,0.6,1.6,1.1,2.3c0.5,0.7,1.1,1.2,1.8,1.6c0.7,0.4,1.6,0.6,2.5,0.6c0.8,0,1.5-0.2,2.2-0.5
		c0.7-0.3,1.3-0.8,1.9-1.4c0.5-0.6,0.9-1.3,1.2-2.2c0.3-0.9,0.5-1.9,0.5-3.1c0-2.2-0.5-4-1.6-5.3c-1.1-1.3-2.4-2-4.1-2
		c-0.8,0-1.5,0.1-2.2,0.4c-0.7,0.3-1.3,0.7-1.9,1.3c-0.5,0.6-1,1.3-1.3,2.3C68.4,18.4,68.2,19.5,68.2,20.7z"/>
	<path d="M88.7,20.6c0-1.7,0.3-3.4,1-4.9c0.7-1.5,1.6-2.8,2.7-3.8c1.1-1.1,2.5-1.9,4-2.5c1.5-0.6,3.2-0.9,4.9-0.9
		c1.7,0,3.4,0.3,4.9,0.9c1.5,0.6,2.9,1.4,4,2.5c1.2,1.1,2.1,2.3,2.7,3.8c0.7,1.5,1,3.1,1,4.9c0,1.8-0.3,3.4-1,4.9
		c-0.7,1.5-1.6,2.8-2.7,3.8c-1.2,1.1-2.5,1.9-4,2.5c-1.5,0.6-3.2,0.9-4.9,0.9c-1.7,0-3.4-0.3-4.9-0.9c-1.5-0.6-2.9-1.4-4-2.5
		c-1.1-1.1-2.1-2.3-2.7-3.8C89.1,24,88.7,22.4,88.7,20.6z M94.6,20.6c0,1.1,0.2,2.1,0.5,2.9c0.4,0.9,0.9,1.6,1.5,2.3
		c0.6,0.6,1.3,1.1,2.2,1.5c0.8,0.3,1.7,0.5,2.6,0.5c0.9,0,1.8-0.2,2.6-0.5c0.8-0.3,1.6-0.8,2.2-1.5c0.6-0.6,1.1-1.4,1.5-2.3
		c0.4-0.9,0.5-1.9,0.5-2.9c0-1.1-0.2-2-0.5-2.9c-0.4-0.9-0.9-1.7-1.5-2.3c-0.6-0.6-1.4-1.1-2.2-1.5c-0.8-0.3-1.7-0.5-2.6-0.5
		c-0.9,0-1.8,0.2-2.6,0.5c-0.8,0.3-1.6,0.8-2.2,1.5c-0.6,0.6-1.1,1.4-1.5,2.3C94.8,18.6,94.6,19.5,94.6,20.6z"/>
	<path d="M118,11c0-1.3,0.6-1.9,1.9-1.9h1.8c1.3,0,1.9,0.6,1.9,1.9v2.2c0,0.2,0,0.5,0,0.6c0,0.2,0,0.3-0.1,0.5c0,0.2,0,0.3,0,0.5
		h0.1c0.2-0.7,0.5-1.4,0.9-2.1c0.4-0.7,0.9-1.3,1.5-1.9c0.6-0.6,1.2-1,1.9-1.4c0.7-0.3,1.5-0.5,2.3-0.5c0.6,0,1.1,0.2,1.3,0.5
		c0.3,0.3,0.4,0.8,0.4,1.4v1.8c0,1.3-0.6,1.9-1.9,1.9c-1.1,0-2,0.2-2.8,0.7c-0.8,0.5-1.4,1.1-1.9,1.9c-0.5,0.8-0.9,1.7-1.2,2.7
		c-0.3,1-0.4,2-0.4,3.1v7.4c0,1.3-0.6,1.9-1.9,1.9h-2c-1.2,0-1.9-0.6-1.9-1.9V11z"/>
	<path d="M132.7,20.6c0-1.6,0.3-3.2,0.9-4.6c0.6-1.5,1.4-2.7,2.5-3.8c1.1-1.1,2.4-2,4-2.6c1.6-0.6,3.3-1,5.2-1
		c1.9,0,3.4,0.3,4.7,0.8c1.2,0.5,2.2,1,2.9,1.5c0.5,0.3,0.7,0.7,0.8,1.2c0,0.4-0.1,0.9-0.4,1.4l-0.6,0.9c-0.3,0.5-0.7,0.8-1.1,0.8
		c-0.4,0-0.9-0.1-1.4-0.3c-0.5-0.3-1.1-0.6-1.9-0.9c-0.8-0.3-1.6-0.5-2.6-0.5c-1.1,0-2,0.2-2.9,0.6c-0.9,0.4-1.6,0.9-2.2,1.5
		c-0.6,0.6-1.1,1.4-1.4,2.3c-0.3,0.9-0.5,1.8-0.5,2.8c0,1,0.2,1.9,0.5,2.8c0.3,0.9,0.8,1.6,1.4,2.3c0.6,0.7,1.4,1.2,2.3,1.6
		c0.9,0.4,1.9,0.6,3,0.6c1.1,0,2.2-0.2,3-0.6c0.9-0.4,1.6-0.8,2.1-1.2c1.1-0.6,2-0.4,2.6,0.6l0.5,0.9c0.6,1.1,0.4,1.9-0.5,2.5
		c-0.4,0.3-0.8,0.6-1.3,0.9c-0.5,0.3-1.1,0.6-1.8,0.9c-0.7,0.3-1.5,0.5-2.3,0.7c-0.8,0.2-1.8,0.3-2.8,0.3c-1.9,0-3.6-0.3-5.2-0.9
		c-1.6-0.6-2.9-1.5-4-2.6c-1.1-1.1-1.9-2.4-2.5-3.8C133,23.8,132.7,22.3,132.7,20.6z"/>
	<path d="M158,1.9c0-1.3,0.6-1.9,1.9-1.9h2c1.2,0,1.9,0.6,1.9,1.9v22.6c0,0.6,0.1,1,0.2,1.4c0.1,0.3,0.2,0.6,0.4,0.8
		c0.2,0.2,0.4,0.3,0.6,0.4c0.2,0.1,0.4,0.1,0.6,0.2c0.4,0.1,0.8,0.2,1,0.5c0.3,0.3,0.4,0.6,0.4,1.2v1.5c0,0.6-0.1,1.1-0.4,1.4
		c-0.3,0.3-0.8,0.5-1.5,0.5c-0.8,0-1.6-0.1-2.4-0.2c-0.8-0.2-1.6-0.5-2.3-1c-0.7-0.5-1.3-1.3-1.7-2.2c-0.4-1-0.7-2.3-0.7-4V1.9z"/>
	<path d="M169.3,20.6c0-1.8,0.3-3.4,0.9-4.9c0.6-1.5,1.4-2.8,2.4-3.8c1-1.1,2.3-1.9,3.7-2.5c1.4-0.6,3-0.9,4.7-0.9
		c1.6,0,3.1,0.3,4.4,0.8c1.3,0.6,2.4,1.3,3.2,2.3c0.9,1,1.5,2.1,2,3.5c0.5,1.4,0.7,2.8,0.7,4.4c0,0.5-0.2,1-0.6,1.4
		c-0.4,0.4-0.9,0.6-1.4,0.6h-14.1c0.1,1.1,0.3,2,0.7,2.8c0.4,0.8,0.9,1.4,1.5,2c0.6,0.5,1.3,0.9,2.1,1.2c0.8,0.3,1.6,0.4,2.5,0.4
		c1.1,0,2-0.2,2.9-0.5c0.9-0.3,1.6-0.7,2.1-1c0.6-0.3,1.1-0.4,1.5-0.3c0.4,0.1,0.8,0.4,1.1,0.9l0.5,0.9c0.6,1.1,0.4,1.9-0.6,2.5
		c-0.8,0.5-1.8,1-3.1,1.5c-1.3,0.5-2.9,0.8-4.7,0.8c-1.9,0-3.6-0.3-5.2-1c-1.5-0.6-2.8-1.5-3.9-2.6c-1.1-1.1-1.9-2.4-2.5-3.8
		C169.6,23.8,169.3,22.2,169.3,20.6z M185.5,18c-0.1-1.6-0.5-2.9-1.4-3.8c-0.9-0.9-2-1.3-3.3-1.3c-1.5,0-2.7,0.5-3.7,1.4
		c-1,0.9-1.6,2.2-1.9,3.7H185.5z"/>
</g>
<g>
	<path d="M15.3,41C9.2,41,3,39.6,3,36.8s6.2-4.2,12.3-4.2s12.3,1.4,12.3,4.2S21.4,41,15.3,41z"/>
</g>
<path class="st0" d="M15.3,33.9c-6.7,0-11,1.7-11,2.9s4.3,2.9,11,2.9s11-1.7,11-2.9S22,33.9,15.3,33.9z"/>
<g>
	<path class="st0" d="M15.2,36.9c-1.8,0-3.5-0.2-4.7-0.6c-0.6-0.2-1.5-0.6-1.4-1.1c0-0.2,0.1-0.5,1-0.8c0.1,0,0.2,0,0.3-0.1
		c1.4-0.3,2.7-0.7,3-1.5c0.4-1.1,0.2-2.3,0-2.7c0,0,0,0,0,0c0.1,0,0.2-0.1,0.3-0.1c0.5-0.1,1.1-0.2,1.8-0.2c0.7,0,1.3,0.1,1.8,0.2
		c0.2,0,0.3,0.1,0.3,0.1c0,0,0,0,0,0c-0.2,0.4-0.5,1.6,0,2.7c0.3,0.9,1.6,1.2,3,1.5c0.1,0,0.2,0,0.3,0.1c0.9,0.2,1,0.6,1,0.8
		c0.1,0.5-0.9,0.9-1.4,1.1c-1.3,0.4-2.9,0.6-4.7,0.6H15.2z"/>
	<path d="M15.3,30.5c0.5,0,0.9,0,1.3,0.1c-0.1,0.7-0.2,1.7,0.2,2.5c0.5,1.2,2,1.6,3.5,1.9l0.1,0c0.1,0,0.2,0,0.2,0
		c0.2,0.1,0.4,0.1,0.5,0.2c-0.1,0.1-0.4,0.3-0.9,0.4c-1.2,0.4-2.8,0.6-4.6,0.6h-0.2c-1.7,0-3.4-0.2-4.6-0.6
		c-0.5-0.2-0.8-0.3-0.9-0.4c0.1,0,0.2-0.1,0.5-0.2c0,0,0.1,0,0.2,0l0,0c1.4-0.3,3-0.7,3.5-1.9c0.3-0.9,0.3-1.8,0.2-2.5
		C14.4,30.5,14.8,30.5,15.3,30.5 M15.3,29.8c-0.7,0-1.3,0.1-1.8,0.2c-0.2,0-0.3,0.1-0.3,0.1c0,0,0,0,0,0c0.2,0.4,0.5,1.6,0,2.7
		c-0.3,0.9-1.6,1.2-3,1.5c-0.1,0-0.2,0-0.3,0.1c-0.9,0.2-1,0.6-1,0.8c-0.1,0.5,0.9,0.9,1.4,1.1c1.3,0.4,2.9,0.6,4.7,0.6h0.2
		c1.8,0,3.5-0.2,4.7-0.6c0.6-0.2,1.5-0.6,1.4-1.1c0-0.2-0.1-0.5-1-0.8c-0.1,0-0.2,0-0.3-0.1c-1.4-0.3-2.7-0.7-3-1.5
		c-0.4-1.1-0.2-2.3,0-2.7c0,0,0,0,0,0c-0.1,0-0.2-0.1-0.3-0.1C16.6,29.9,16,29.8,15.3,29.8L15.3,29.8z"/>
</g>
<g>
	<circle class="st0" cx="15.3" cy="15.4" r="14.5"/>
	<path d="M15.3,30.6c-8.4,0-15.2-6.8-15.2-15.2C0.1,7,6.9,0.2,15.3,0.2S30.5,7,30.5,15.4C30.5,23.7,23.7,30.6,15.3,30.6z M15.3,1.5
		C7.6,1.5,1.4,7.7,1.4,15.4s6.2,13.9,13.9,13.9S29.2,23,29.2,15.4S23,1.5,15.3,1.5z"/>
</g>
<path class="st1" d="M23.9,11c-0.3,0-0.6-0.2-0.8-0.5c-0.8-1.3-2-2.5-3.4-3.2C19.2,7.1,19,6.5,19.3,6c0.3-0.5,0.8-0.6,1.3-0.4
	c1.7,0.9,3.1,2.3,4.1,3.9c0.3,0.5,0.1,1-0.3,1.3C24.2,10.9,24.1,11,23.9,11z"/>
</svg>
